<svg width="32" height="32" viewBox="0 0 512 512" fill="none" xmlns="http://www.w3.org/2000/svg">
  <circle cx="256" cy="256" r="256" fill="#0A0F2D"/>
  <path d="M256 96c-88 0-160 72-160 160 0 64 38.4 119.2 93.6 144l22.4-38.4c-41.6-19.2-70.4-60.8-70.4-108.8 0-67.2 54.4-121.6 121.6-121.6s121.6 54.4 121.6 121.6c0 48-28.8 89.6-70.4 108.8l22.4 38.4c55.2-24.8 93.6-80 93.6-144 0-88-72-160-160-160z" fill="#00A3FF"/>
  <path d="M256 160c-52.8 0-96 43.2-96 96s43.2 96 96 96 96-43.2 96-96-43.2-96-96-96zm0 160c-35.2 0-64-28.8-64-64s28.8-64 64-64 64 28.8 64 64-28.8 64-64 64z" fill="#FF3D00"/>
  <path d="M256 208c-25.6 0-48 22.4-48 48s22.4 48 48 48 48-22.4 48-48-22.4-48-48-48z" fill="#FFC107"/>
</svg>
